<svg width="62" height="62" viewBox="0 0 62 62" fill="none" xmlns="http://www.w3.org/2000/svg">
<path d="M23 39.8V43C23 45 22 48.2 12 50C9.24988 50.461 6.7121 51.7686 4.74034 53.7403C2.76857 55.7121 1.46105 58.2499 1 61H61C60.2166 58.234 58.6795 55.7404 56.5603 53.7978C54.4412 51.8553 51.8235 50.5403 49 50C39 48.1 39 45 39 43V39.8" fill="white"/>
<path d="M23 39.8V43C23 45 22 48.2 12 50C9.24988 50.461 6.7121 51.7686 4.74034 53.7403C2.76857 55.7121 1.46105 58.2499 1 61H61C60.2166 58.234 58.6795 55.7404 56.5603 53.7978C54.4412 51.8553 51.8235 50.5403 49 50C39 48.1 39 45 39 43V39.8" stroke="#202020" stroke-width="2" stroke-miterlimit="10" stroke-linecap="round" stroke-linejoin="round"/>
<path d="M45 24.6C45 34.6 38.7 43 31 43C23.3 43 17 35 17 25V15.4C17 5 24.4 1 31 1C37.6 1 45 4.6 45 15V24.6Z" fill="white" stroke="#202020" stroke-width="2" stroke-miterlimit="10" stroke-linecap="round" stroke-linejoin="round"/>
</svg>
